<?xml version="1.0" encoding="UTF-8" standalone="no"?>
<!-- Created with Inkscape (http://www.inkscape.org/) -->

<svg
   xmlns:dc="http://purl.org/dc/elements/1.1/"
   xmlns:cc="http://creativecommons.org/ns#"
   xmlns:rdf="http://www.w3.org/1999/02/22-rdf-syntax-ns#"
   xmlns:svg="http://www.w3.org/2000/svg"
   xmlns="http://www.w3.org/2000/svg"
   xmlns:xlink="http://www.w3.org/1999/xlink"
   version="1.1"
   width="256"
   height="256"
   id="svg20103">
  <defs
     id="defs20105">
    <linearGradient
       x1="0"
       y1="0"
       x2="1"
       y2="0"
       id="linearGradient15844"
       gradientUnits="userSpaceOnUse"
       gradientTransform="matrix(0,20.292969,20.292969,0,55.391113,586.04492)"
       spreadMethod="pad">
      <stop
         id="stop15846"
         style="stop-color:#333333;stop-opacity:1"
         offset="0" />
      <stop
         id="stop15848"
         style="stop-color:#666666;stop-opacity:1"
         offset="0.73361117" />
      <stop
         id="stop15850"
         style="stop-color:#666666;stop-opacity:1"
         offset="1" />
    </linearGradient>
    <linearGradient
       x1="0"
       y1="0"
       x2="1"
       y2="0"
       id="linearGradient15866"
       gradientUnits="userSpaceOnUse"
       gradientTransform="matrix(0,12.125,12.125,0,55.391113,598.67578)"
       spreadMethod="pad">
      <stop
         id="stop15868"
         style="stop-color:#333333;stop-opacity:1"
         offset="0" />
      <stop
         id="stop15870"
         style="stop-color:#666666;stop-opacity:1"
         offset="0.83636498" />
      <stop
         id="stop15872"
         style="stop-color:#666666;stop-opacity:1"
         offset="1" />
    </linearGradient>
    <linearGradient
       x1="0"
       y1="0"
       x2="1"
       y2="0"
       id="linearGradient20029"
       xlink:href="#linearGradient14084"
       gradientUnits="userSpaceOnUse"
       gradientTransform="matrix(0,15.814453,15.814453,0,106.71582,445.60254)"
       spreadMethod="pad" />
    <linearGradient
       x1="0"
       y1="0"
       x2="1"
       y2="0"
       id="linearGradient14084"
       gradientUnits="userSpaceOnUse"
       gradientTransform="matrix(0,15.814453,15.814453,0,106.71582,445.60254)"
       spreadMethod="pad">
      <stop
         id="stop14086"
         style="stop-color:#333333;stop-opacity:1"
         offset="0" />
      <stop
         id="stop14088"
         style="stop-color:#666666;stop-opacity:1"
         offset="0.83636498" />
      <stop
         id="stop14090"
         style="stop-color:#666666;stop-opacity:1"
         offset="1" />
    </linearGradient>
    <linearGradient
       x1="0"
       y1="0"
       x2="1"
       y2="0"
       id="linearGradient20886"
       xlink:href="#linearGradient14084"
       gradientUnits="userSpaceOnUse"
       gradientTransform="matrix(0,-178.37993,178.37993,0,92.883715,978.71565)"
       spreadMethod="pad" />
    <linearGradient
       x1="0"
       y1="0"
       x2="1"
       y2="0"
       id="linearGradient20027"
       xlink:href="#linearGradient14106"
       gradientUnits="userSpaceOnUse"
       gradientTransform="matrix(0,9.628418,9.628418,0,115.45801,438.18799)"
       spreadMethod="pad" />
    <linearGradient
       x1="0"
       y1="0"
       x2="1"
       y2="0"
       id="linearGradient14106"
       gradientUnits="userSpaceOnUse"
       gradientTransform="matrix(0,9.628418,9.628418,0,115.45801,438.18799)"
       spreadMethod="pad">
      <stop
         id="stop14108"
         style="stop-color:#333333;stop-opacity:1"
         offset="0" />
      <stop
         id="stop14110"
         style="stop-color:#666666;stop-opacity:1"
         offset="0.83636498" />
      <stop
         id="stop14112"
         style="stop-color:#666666;stop-opacity:1"
         offset="1" />
    </linearGradient>
  </defs>
  <metadata
     id="metadata20108">
    <rdf:RDF>
      <cc:Work
         rdf:about="">
        <dc:format>image/svg+xml</dc:format>
        <dc:type
           rdf:resource="http://purl.org/dc/dcmitype/StillImage" />
        <dc:title></dc:title>
      </cc:Work>
    </rdf:RDF>
  </metadata>
  <g
     transform="translate(0,-796.36218)"
     id="layer1">
    <path
       d="m 85.892425,800.33556 c -2.842455,0 -5.143478,2.31231 -5.143478,5.1322 l 0,0 0,12.20448 c 0,2.81987 -2.210788,5.7864 -4.917887,6.58725 l 0,0 -17.065955,7.03844 c -2.470225,1.34226 -6.136081,0.82385 -8.132558,-1.18435 l 0,0 -8.6063,-8.6063 c -2.00776,-2.00776 -5.25627,-2.00776 -7.252751,0 l 0,0 -9.914725,9.91472 c -1.996481,1.9852 -1.996481,5.245 0,7.25276 l 0,0 8.617577,8.60629 c 1.996481,2.00776 2.515339,5.66233 1.161794,8.13256 l 0,0 -7.015881,17.05468 c -0.800849,2.69581 -3.77865,4.91788 -6.587258,4.91788 l 0,0 -12.2157539,0 c -2.8086086,0 -5.1321958,2.30103 -5.1321958,5.13219 l 0,0 0,14.00922 c 0,2.81988 2.3235872,5.12091 5.1321958,5.12091 l 0,0 12.2157539,0 c 2.808608,0 5.786409,2.23335 6.587258,4.94044 l 0,0 7.015881,17.05468 c 1.353545,2.4815 0.834687,6.1248 -1.161794,8.13256 l 0,0 -8.617577,8.6063 c -1.996481,2.00776 -1.996481,5.26755 0,7.26403 l 0,0 9.914725,9.90344 c 1.996481,1.99648 5.244991,1.99648 7.252751,0 l 0,0 8.6063,-8.61758 c 2.00776,-1.99647 5.662333,-2.50406 8.14383,-1.17306 l 0,0 17.054683,7.02715 c 2.707099,0.78957 4.917887,3.76738 4.917887,6.58724 l 0,0 0,12.22707 c 0,2.79736 2.301023,5.10958 5.143478,5.10958 l 0,0 14.0092,0 c 2.819895,0 5.109635,-2.31222 5.109635,-5.10958 l 0,0 0,-12.22707 c 0,-2.81986 2.21079,-5.79767 4.92916,-6.58724 l 0,0 17.06597,-7.02715 c 2.45893,-1.331 6.11351,-0.82296 8.12127,1.17306 l 0,0 8.61757,8.61758 c 1.99649,1.99648 5.25628,1.99648 7.25276,0 l 0,0 9.91472,-9.90344 c 1.99648,-1.99648 1.99648,-5.25627 0,-7.26403 l 0,0 -8.62886,-8.6063 c -1.99647,-2.00776 -2.52661,-5.66233 -1.16179,-8.13256 l 0,0 7.02717,-17.05468 c 0.80084,-2.70709 3.77864,-4.94044 6.59853,-4.94044 l 0,0 12.20447,0 c 2.81989,0 5.12092,-2.30103 5.12092,-5.12091 l 0,0 0,-14.00922 c 0,-2.83116 -2.30103,-5.13219 -5.12092,-5.13219 l 0,0 -12.20447,0 c -2.81989,0 -5.79769,-2.22207 -6.59853,-4.91788 l 0,0 -7.02717,-17.05468 c -1.35355,-2.47023 -0.83468,-6.1248 1.16179,-8.13256 l 0,0 8.62886,-8.60629 c 1.99648,-2.00776 1.99648,-5.26756 0,-7.27532 l 0,0 -9.91472,-9.90344 c -1.99648,-1.99648 -5.25627,-1.99648 -7.25276,0 l 0,0 -8.61757,8.61758 c -2.00776,2.00776 -5.66234,2.52661 -8.12127,1.18435 l 0,0 -17.06597,-7.03844 c -2.71837,-0.8013 -4.92916,-3.76738 -4.92916,-6.58725 l 0,0 0,-12.20448 c 0,-2.81989 -2.28974,-5.1322 -5.109635,-5.1322 l 0,0 -14.0092,0 z m -33.928893,89.18742 c 0,-22.59295 18.317996,-40.9335 40.933493,-40.9335 l 0,0 c 22.592935,0 40.922205,18.34055 40.922205,40.9335 l 0,0 c 0,22.59293 -18.32927,40.92221 -40.922205,40.92221 l 0,0 c -22.615497,0 -40.933493,-18.32928 -40.933493,-40.92221"
       id="path14092"
       style="fill:url(#linearGradient20886);stroke:none" />
    <g
       transform="matrix(11.279552,0,0,-11.279552,-1106.3097,5989.5137)"
       id="g14094">
      <g
         id="g14096">
        <g
           id="g14102">
          <g
             id="g14104">
            <path
               d="m 114.409,447.804 -0.735,-0.222 c -0.151,-0.045 -0.235,-0.203 -0.19,-0.352 l 0,0 0.194,-0.641 c 0.045,-0.149 -0.025,-0.338 -0.155,-0.424 l 0,0 -0.784,-0.643 c -0.107,-0.111 -0.31,-0.14 -0.445,-0.067 l 0,0 -0.591,0.316 c -0.137,0.074 -0.309,0.023 -0.381,-0.114 l 0,0 -0.365,-0.678 c -0.072,-0.138 -0.021,-0.31 0.116,-0.383 l 0,0 0.591,-0.317 c 0.137,-0.073 0.222,-0.258 0.191,-0.409 l 0,0 -0.102,-1.008 c 0,-0.155 -0.119,-0.32 -0.267,-0.363 l 0,0 -0.642,-0.194 c -0.149,-0.044 -0.233,-0.203 -0.188,-0.353 l 0,0 0.222,-0.735 c 0.045,-0.149 0.203,-0.233 0.352,-0.189 l 0,0 0.642,0.193 c 0.147,0.045 0.338,-0.025 0.424,-0.153 l 0,0 0.643,-0.784 c 0.11,-0.108 0.14,-0.31 0.068,-0.447 l 0,0 -0.318,-0.59 c -0.073,-0.138 -0.022,-0.309 0.116,-0.382 l 0,0 0.678,-0.363 c 0.136,-0.073 0.309,-0.021 0.381,0.114 l 0,0 0.317,0.592 c 0.073,0.137 0.258,0.222 0.41,0.192 l 0,0 1.007,-0.103 c 0.156,10e-4 0.319,-0.12 0.363,-0.269 l 0,0 0.195,-0.639 c 0.045,-0.15 0.203,-0.234 0.352,-0.189 l 0,0 0.737,0.222 c 0.147,0.045 0.232,0.204 0.188,0.352 l 0,0 -0.194,0.641 c -0.046,0.149 0.024,0.34 0.154,0.424 l 0,0 0.783,0.643 c 0.108,0.111 0.311,0.142 0.447,0.068 l 0,0 0.59,-0.317 c 0.138,-0.073 0.31,-0.021 0.383,0.115 l 0,0 0.363,0.678 c 0.074,0.137 0.021,0.309 -0.115,0.383 l 0,0 -0.591,0.316 c -0.137,0.075 -0.223,0.256 -0.191,0.409 l 0,0 0.103,1.01 c -0.002,0.154 0.118,0.317 0.266,0.363 l 0,0 0.641,0.193 c 0.148,0.044 0.233,0.203 0.189,0.351 l 0,0 -0.223,0.737 c -0.045,0.149 -0.203,0.233 -0.352,0.189 l 0,0 -0.64,-0.195 c -0.149,-0.044 -0.34,0.026 -0.425,0.156 l 0,0 -0.644,0.782 c -0.109,0.109 -0.14,0.31 -0.066,0.447 l 0,0 0.316,0.591 c 0.074,0.138 0.021,0.308 -0.115,0.382 l 0,0 -0.678,0.363 c -0.137,0.074 -0.309,0.021 -0.383,-0.116 l 0,0 -0.317,-0.589 c -0.072,-0.137 -0.257,-0.223 -0.408,-0.192 l 0,0 -1.009,0.102 c -0.155,-0.002 -0.319,0.119 -0.363,0.268 l 0,0 -0.195,0.64 c -0.036,0.121 -0.148,0.2 -0.268,0.2 l 0,0 c -0.027,0 -0.055,-0.004 -0.082,-0.012 m -0.013,-6.783 c -1.094,0.586 -1.506,1.949 -0.919,3.043 l 0,0 c 0.586,1.095 1.949,1.507 3.044,0.92 l 0,0 c 1.093,-0.587 1.506,-1.95 0.919,-3.044 l 0,0 c -0.405,-0.756 -1.182,-1.186 -1.984,-1.186 l 0,0 c -0.359,0 -0.722,0.085 -1.06,0.267"
               id="path14114"
               style="fill:url(#linearGradient20027);stroke:none" />
          </g>
        </g>
      </g>
    </g>
  </g>
</svg>
